<?xml version="1.0" encoding="utf-8"?>
<!-- Generator: Adobe Illustrator 18.1.1, SVG Export Plug-In . SVG Version: 6.00 Build 0)  -->
<svg version="1.1" id="Ebene_1" xmlns="http://www.w3.org/2000/svg" xmlns:xlink="http://www.w3.org/1999/xlink" x="0px" y="0px"
	 viewBox="0 0 319.7 47" enable-background="new 0 0 319.7 47" xml:space="preserve">
<g>
	<g>
		<path fill="#159CD8" d="M138.5,30.5h-10.4l-1.8,3.4h-4.6l11.7-21.4L145,33.8h-4.6L138.5,30.5z M136.3,26.4l-3-5.5l-3,5.5H136.3z"
			/>
		<path fill="#159CD8" d="M161.6,13.6c3.3,0,6.2,1.6,8.1,4l0.4,0.5l-3.2,2.5l-0.4-0.5c-1.1-1.5-2.9-2.4-4.9-2.4
			c-3.3,0-6.1,2.7-6.1,6.1c0,3.3,2.7,6.1,6.1,6.1c2,0,3.8-0.9,4.9-2.4l0.4-0.5l3.2,2.5l-0.4,0.5c-1.8,2.5-4.8,4-8.1,4
			c-5.6,0-10.1-4.5-10.1-10.1C151.5,18.1,156,13.6,161.6,13.6z"/>
		<path fill="#159CD8" d="M192.1,30.5h-10.4l-1.8,3.4h-4.6l11.7-21.4l11.7,21.4H194L192.1,30.5z M189.9,26.4l-3-5.5l-3,5.5H189.9z"
			/>
		<path fill="#159CD8" d="M207.5,33.8V13.6h7.4c5.6,0,10.1,4.5,10.1,10.1c0,5.6-4.5,10.1-10.1,10.1H207.5z M214.9,29.8
			c3.3,0,6.1-2.7,6.1-6.1c0-3.3-2.7-6.1-6.1-6.1h-3.4v12.1H214.9z"/>
		<path fill="#159CD8" d="M234.5,13.6h14.8v4h-10.8v6.1h8.1v4h-8.1v2h10.8v4h-14.8V13.6z"/>
		<path fill="#159CD8" d="M262,13.6h1l7.3,7.9l7.3-7.9h1.1l1.5,20.2h-4l-0.9-11.7l-4.9,5.3l-4.9-5.3l-0.9,11.7h-4L262,13.6z"/>
		<path fill="#159CD8" d="M287.5,13.6h4.8l5.4,8.6l5.4-8.6h4.8l-8.2,13v7.3h-4v-7.3L287.5,13.6z"/>
	</g>
	<g>
		<path fill="#ED6C41" d="M24.3,28.2c0,0.9-0.2,1.8-0.5,2.5c-0.3,0.7-0.8,1.4-1.5,1.9c-0.6,0.5-1.3,0.9-2.2,1.2
			c-0.8,0.3-1.7,0.4-2.7,0.4c-0.7,0-1.3-0.1-1.9-0.2c-0.6-0.1-1.1-0.3-1.5-0.4s-0.8-0.3-1.1-0.5c-0.3-0.2-0.5-0.3-0.6-0.5
			c-0.1-0.1-0.2-0.3-0.3-0.5c-0.1-0.2-0.1-0.5-0.1-0.8c0-0.2,0-0.4,0-0.6c0-0.2,0.1-0.3,0.1-0.4c0-0.1,0.1-0.2,0.2-0.2
			s0.1-0.1,0.2-0.1c0.1,0,0.4,0.1,0.6,0.3s0.6,0.4,1,0.6c0.4,0.2,0.9,0.4,1.5,0.6c0.6,0.2,1.3,0.3,2,0.3c0.6,0,1.1-0.1,1.6-0.2
			s0.9-0.4,1.2-0.7c0.3-0.3,0.6-0.6,0.8-1.1s0.3-0.9,0.3-1.4c0-0.6-0.1-1.1-0.4-1.5c-0.3-0.4-0.6-0.8-1-1.1
			c-0.4-0.3-0.9-0.6-1.5-0.8c-0.5-0.3-1.1-0.5-1.7-0.8c-0.6-0.3-1.1-0.6-1.7-0.9c-0.5-0.3-1-0.7-1.5-1.1c-0.4-0.4-0.8-1-1-1.5
			c-0.3-0.6-0.4-1.3-0.4-2.1c0-0.8,0.2-1.6,0.5-2.3c0.3-0.7,0.7-1.2,1.3-1.7c0.5-0.4,1.2-0.8,2-1c0.8-0.2,1.6-0.4,2.4-0.4
			c0.4,0,0.9,0,1.4,0.1s0.9,0.2,1.3,0.3c0.4,0.1,0.8,0.3,1.1,0.4c0.3,0.2,0.5,0.3,0.6,0.4c0.1,0.1,0.2,0.2,0.2,0.2
			c0,0.1,0.1,0.1,0.1,0.2c0,0.1,0,0.2,0,0.3c0,0.1,0,0.3,0,0.5c0,0.2,0,0.4,0,0.5c0,0.1,0,0.3-0.1,0.4c0,0.1-0.1,0.2-0.1,0.2
			c-0.1,0-0.1,0.1-0.2,0.1c-0.1,0-0.3-0.1-0.5-0.2c-0.2-0.1-0.5-0.3-0.9-0.5c-0.4-0.2-0.8-0.3-1.3-0.5c-0.5-0.2-1-0.2-1.6-0.2
			c-0.6,0-1.1,0.1-1.5,0.2c-0.4,0.2-0.8,0.4-1,0.6c-0.3,0.2-0.5,0.5-0.6,0.9c-0.1,0.3-0.2,0.7-0.2,1.1c0,0.6,0.1,1,0.4,1.5
			c0.3,0.4,0.6,0.8,1,1.1c0.4,0.3,0.9,0.6,1.5,0.9c0.6,0.3,1.1,0.5,1.7,0.8c0.6,0.3,1.1,0.6,1.7,0.9c0.6,0.3,1,0.7,1.5,1.1
			c0.4,0.4,0.8,0.9,1,1.5S24.3,27.4,24.3,28.2z"/>
		<path fill="#ED6C41" d="M44.9,33.4c0,0.1,0,0.2-0.1,0.2c0,0.1-0.1,0.1-0.2,0.2c-0.1,0-0.2,0.1-0.4,0.1c-0.2,0-0.4,0-0.7,0
			c-0.4,0-0.7,0-0.9,0c-0.2,0-0.4-0.1-0.5-0.2c-0.1-0.1-0.2-0.2-0.3-0.3l-7.4-10.1v10.1c0,0.1,0,0.1-0.1,0.2c0,0.1-0.1,0.1-0.2,0.2
			c-0.1,0-0.2,0.1-0.4,0.1c-0.2,0-0.4,0-0.6,0c-0.2,0-0.5,0-0.6,0c-0.2,0-0.3-0.1-0.4-0.1c-0.1,0-0.2-0.1-0.2-0.2
			c0-0.1-0.1-0.1-0.1-0.2V14c0-0.1,0-0.2,0.1-0.2c0-0.1,0.1-0.1,0.2-0.1c0.1,0,0.2-0.1,0.4-0.1c0.2,0,0.4,0,0.6,0c0.3,0,0.5,0,0.6,0
			c0.2,0,0.3,0.1,0.4,0.1c0.1,0,0.2,0.1,0.2,0.1c0,0.1,0.1,0.1,0.1,0.2v9l7.2-9c0.1-0.1,0.1-0.2,0.2-0.2c0.1-0.1,0.2-0.1,0.3-0.1
			c0.1,0,0.3-0.1,0.4-0.1c0.2,0,0.4,0,0.7,0c0.3,0,0.5,0,0.7,0c0.2,0,0.3,0.1,0.4,0.1c0.1,0,0.2,0.1,0.2,0.2c0,0.1,0.1,0.1,0.1,0.2
			c0,0.1,0,0.3-0.1,0.4c-0.1,0.1-0.2,0.3-0.4,0.6l-6.7,8l7.2,9.6c0.2,0.3,0.3,0.5,0.3,0.6C44.9,33.2,44.9,33.3,44.9,33.4z"/>
		<path fill="#ED6C41" d="M54.7,33.4c0,0.1,0,0.2-0.1,0.2c0,0.1-0.1,0.1-0.2,0.1c-0.1,0-0.2,0.1-0.4,0.1c-0.2,0-0.4,0-0.6,0
			c-0.2,0-0.5,0-0.6,0c-0.2,0-0.3-0.1-0.4-0.1c-0.1,0-0.2-0.1-0.2-0.1c0-0.1-0.1-0.1-0.1-0.2V14c0-0.1,0-0.2,0.1-0.2
			s0.1-0.1,0.2-0.1c0.1,0,0.2-0.1,0.4-0.1c0.2,0,0.4,0,0.6,0c0.3,0,0.5,0,0.6,0c0.2,0,0.3,0.1,0.4,0.1c0.1,0,0.2,0.1,0.2,0.1
			c0,0.1,0.1,0.1,0.1,0.2V33.4z"/>
		<path fill="#ED6C41" d="M74.1,32.7c0,0.2,0,0.4,0,0.5c0,0.1-0.1,0.3-0.1,0.4s-0.1,0.2-0.2,0.2c-0.1,0-0.1,0.1-0.2,0.1h-8.9
			c-0.2,0-0.5-0.1-0.7-0.2c-0.2-0.2-0.3-0.4-0.3-0.9V14c0-0.1,0-0.2,0.1-0.2c0-0.1,0.1-0.1,0.2-0.1c0.1,0,0.2-0.1,0.4-0.1
			c0.2,0,0.4,0,0.6,0c0.3,0,0.5,0,0.6,0c0.2,0,0.3,0.1,0.4,0.1c0.1,0,0.2,0.1,0.2,0.1c0,0.1,0.1,0.1,0.1,0.2v17.5h7.2
			c0.1,0,0.2,0,0.2,0.1c0.1,0,0.1,0.1,0.2,0.2s0.1,0.2,0.1,0.4C74.1,32.3,74.1,32.4,74.1,32.7z"/>
		<path fill="#ED6C41" d="M91.2,32.7c0,0.2,0,0.4,0,0.5c0,0.1-0.1,0.3-0.1,0.4s-0.1,0.2-0.2,0.2c-0.1,0-0.1,0.1-0.2,0.1h-8.9
			c-0.2,0-0.5-0.1-0.7-0.2c-0.2-0.2-0.3-0.4-0.3-0.9V14c0-0.1,0-0.2,0.1-0.2c0-0.1,0.1-0.1,0.2-0.1c0.1,0,0.2-0.1,0.4-0.1
			c0.2,0,0.4,0,0.6,0c0.3,0,0.5,0,0.6,0c0.2,0,0.3,0.1,0.4,0.1c0.1,0,0.2,0.1,0.2,0.1c0,0.1,0.1,0.1,0.1,0.2v17.5h7.2
			c0.1,0,0.2,0,0.2,0.1c0.1,0,0.1,0.1,0.2,0.2s0.1,0.2,0.1,0.4C91.2,32.3,91.2,32.4,91.2,32.7z"/>
		<path fill="#ED6C41" d="M108.6,28.2c0,0.9-0.2,1.8-0.5,2.5c-0.3,0.7-0.8,1.4-1.5,1.9c-0.6,0.5-1.3,0.9-2.2,1.2
			c-0.8,0.3-1.7,0.4-2.7,0.4c-0.7,0-1.3-0.1-1.9-0.2c-0.6-0.1-1.1-0.3-1.5-0.4s-0.8-0.3-1.1-0.5c-0.3-0.2-0.5-0.3-0.6-0.5
			c-0.1-0.1-0.2-0.3-0.3-0.5c-0.1-0.2-0.1-0.5-0.1-0.8c0-0.2,0-0.4,0-0.6c0-0.2,0.1-0.3,0.1-0.4c0-0.1,0.1-0.2,0.2-0.2
			s0.1-0.1,0.2-0.1c0.1,0,0.4,0.1,0.6,0.3s0.6,0.4,1,0.6c0.4,0.2,0.9,0.4,1.5,0.6c0.6,0.2,1.3,0.3,2,0.3c0.6,0,1.1-0.1,1.6-0.2
			s0.9-0.4,1.2-0.7c0.3-0.3,0.6-0.6,0.8-1.1s0.3-0.9,0.3-1.4c0-0.6-0.1-1.1-0.4-1.5c-0.3-0.4-0.6-0.8-1-1.1
			c-0.4-0.3-0.9-0.6-1.5-0.8c-0.5-0.3-1.1-0.5-1.7-0.8c-0.6-0.3-1.1-0.6-1.7-0.9c-0.5-0.3-1-0.7-1.5-1.1c-0.4-0.4-0.8-1-1-1.5
			c-0.3-0.6-0.4-1.3-0.4-2.1c0-0.8,0.2-1.6,0.5-2.3c0.3-0.7,0.7-1.2,1.3-1.7c0.5-0.4,1.2-0.8,2-1c0.8-0.2,1.6-0.4,2.4-0.4
			c0.4,0,0.9,0,1.4,0.1s0.9,0.2,1.3,0.3c0.4,0.1,0.8,0.3,1.1,0.4c0.3,0.2,0.5,0.3,0.6,0.4c0.1,0.1,0.2,0.2,0.2,0.2
			c0,0.1,0.1,0.1,0.1,0.2c0,0.1,0,0.2,0,0.3c0,0.1,0,0.3,0,0.5c0,0.2,0,0.4,0,0.5c0,0.1,0,0.3-0.1,0.4c0,0.1-0.1,0.2-0.1,0.2
			c-0.1,0-0.1,0.1-0.2,0.1c-0.1,0-0.3-0.1-0.5-0.2c-0.2-0.1-0.5-0.3-0.9-0.5c-0.4-0.2-0.8-0.3-1.3-0.5c-0.5-0.2-1-0.2-1.6-0.2
			c-0.6,0-1.1,0.1-1.5,0.2c-0.4,0.2-0.8,0.4-1,0.6c-0.3,0.2-0.5,0.5-0.6,0.9c-0.1,0.3-0.2,0.7-0.2,1.1c0,0.6,0.1,1,0.4,1.5
			c0.3,0.4,0.6,0.8,1,1.1c0.4,0.3,0.9,0.6,1.5,0.9c0.6,0.3,1.1,0.5,1.7,0.8c0.6,0.3,1.1,0.6,1.7,0.9c0.6,0.3,1,0.7,1.5,1.1
			c0.4,0.4,0.8,0.9,1,1.5S108.6,27.4,108.6,28.2z"/>
	</g>
</g>
</svg>
